<?xml version="1.0" encoding="utf-8"?>
<!-- Generator: Adobe Illustrator 28.0.0, SVG Export Plug-In . SVG Version: 6.00 Build 0)  -->
<svg version="1.1" id="Layer_1" xmlns="http://www.w3.org/2000/svg" xmlns:xlink="http://www.w3.org/1999/xlink" x="0px" y="0px"
	 viewBox="0 0 48 48" style="enable-background:new 0 0 48 48;" xml:space="preserve">
<style type="text/css">
	.st0{fill:#CC314D;}
	.st1{fill:#931E34;}
	.st2{fill:#FAA719;stroke:#931E34;stroke-width:0.15;stroke-miterlimit:10;}
	.st3{fill:#FAA719;}
</style>
<g>
	<path class="st0" d="M3.691,45.33c-0.863,0-1.566-0.703-1.566-1.566V3.692c0-0.864,0.703-1.567,1.566-1.567h40.617
		c0.864,0,1.567,0.703,1.567,1.567v40.072c0,0.863-0.703,1.566-1.566,1.566H3.691z"/>
	<path class="st1" d="M44.308,2.25c0.795,0,1.442,0.647,1.442,1.442v40.072c0,0.795-0.646,1.441-1.441,1.441H3.691
		c-0.795,0-1.441-0.646-1.441-1.441V3.692c0-0.795,0.646-1.442,1.441-1.442H44.308 M44.308,2H3.691C2.761,2,2,2.761,2,3.692v40.072
		c0,0.93,0.761,1.691,1.691,1.691h40.618c0.93,0,1.691-0.761,1.691-1.691V3.692C46,2.761,45.239,2,44.308,2L44.308,2z"/>
</g>
<g>
	<polygon class="st2" points="21.521,45.322 21.521,26.208 2.133,26.208 2.133,21.246 21.521,21.246 21.521,2.133 26.48,2.133 
		26.48,21.246 45.867,21.246 45.867,26.208 26.48,26.208 26.48,45.322 	"/>
</g>
<g>
	<path class="st1" d="M32.668,29.54c0.163,0.371,0.321,0.705,0.46,1.047c0.528,1.307,0.887,2.665,1.192,4.037
		c0.262,1.179,0.446,2.371,0.542,3.575c0.114,1.422,0.137,2.844-0.124,4.268c-0.124-0.064-0.2-0.183-0.29-0.279
		c-0.798-0.851-1.591-1.707-2.385-2.562c-0.09-0.097-0.193-0.185-0.266-0.293c-0.083-0.122-0.141-0.072-0.22-0.006
		c-1.125,0.941-2.251,1.88-3.377,2.819c-0.013,0.011-0.031,0.014-0.063,0.028c-0.007-0.159,0.044-0.3,0.08-0.438
		c0.314-1.215,0.453-2.454,0.536-3.702c0.062-0.943,0.099-1.887,0.085-2.831c-0.025-1.58-0.068-3.16-0.411-4.714
		c-0.311-1.41-0.788-2.754-1.537-3.996c-0.069-0.115-0.128-0.133-0.236-0.056c-0.294,0.21-0.619,0.315-0.986,0.313
		c-1.116-0.006-2.232-0.008-3.348,0.001c-0.374,0.003-0.696-0.118-0.982-0.341c-0.101-0.079-0.13-0.058-0.191,0.04
		c-0.574,0.932-0.984,1.933-1.293,2.979c-0.316,1.074-0.498,2.173-0.583,3.288c-0.04,0.521-0.061,1.043-0.076,1.565
		c-0.016,0.536-0.029,1.072-0.018,1.608c0.034,1.68,0.105,3.358,0.432,5.013c0.072,0.365,0.165,0.725,0.246,1.088
		c0.012,0.056,0.046,0.111,0.01,0.192c-0.178-0.146-0.351-0.287-0.523-0.43c-0.971-0.811-1.941-1.622-2.912-2.433
		c-0.081-0.067-0.123-0.085-0.224,0.016c-0.247,0.246-0.467,0.515-0.713,0.761c-0.295,0.296-0.564,0.616-0.849,0.921
		c-0.4,0.427-0.802,0.851-1.209,1.271c-0.053,0.054-0.056,0.151-0.169,0.176c-0.045-0.349-0.103-0.694-0.133-1.041
		c-0.102-1.159-0.06-2.316,0.046-3.474c0.144-1.585,0.433-3.143,0.84-4.68c0.324-1.222,0.689-2.431,1.26-3.567
		c0.018-0.036,0.062-0.08,0.033-0.115c-0.037-0.045-0.082-0.004-0.127,0.014c-0.527,0.206-1.051,0.421-1.584,0.608
		c-0.549,0.192-1.106,0.362-1.685,0.443c-0.858,0.12-1.483-0.257-1.959-0.941c-0.541-0.777-0.824-1.658-1.047-2.564
		c-0.147-0.595-0.24-1.199-0.317-1.805c-0.043-0.341-0.063-0.687-0.086-1.032c-0.042-0.636-0.051-1.272-0.048-1.909
		c0.003-0.593,0.026-1.186,0.095-1.774c0.128-1.087,0.32-2.163,0.684-3.2c0.231-0.659,0.505-1.298,0.95-1.846
		c0.284-0.349,0.608-0.654,1.063-0.767c0.369-0.092,0.73-0.013,1.087,0.076c1.258,0.314,2.45,0.804,3.619,1.356
		c1.242,0.587,2.429,1.266,3.523,2.099c0.468,0.356,0.921,0.732,1.313,1.175c0.067,0.076,0.091,0.05,0.141-0.019
		c0.294-0.408,0.66-0.713,1.18-0.781c0.071-0.009,0.144-0.013,0.216-0.013c1.074-0.001,2.148,0.013,3.221-0.006
		c0.627-0.011,1.106,0.238,1.471,0.723c0.108,0.143,0.143,0.145,0.271,0.012c0.658-0.681,1.404-1.258,2.199-1.769
		c1.644-1.058,3.397-1.891,5.251-2.51c0.462-0.154,0.93-0.288,1.413-0.363c0.528-0.082,0.968,0.089,1.35,0.446
		c0.537,0.502,0.858,1.138,1.119,1.807c0.499,1.276,0.735,2.61,0.855,3.968c0.064,0.726,0.091,1.454,0.07,2.183
		c-0.046,1.68-0.209,3.345-0.744,4.952c-0.181,0.543-0.413,1.062-0.741,1.536c-0.596,0.862-1.298,1.136-2.322,0.905
		c-0.988-0.222-1.93-0.577-2.861-0.966C32.825,29.606,32.764,29.58,32.668,29.54z M33.565,21.12
		c-1.028,0.233-2.053,0.458-3.074,0.703c-0.84,0.202-1.66,0.457-2.438,0.838c-0.087,0.042-0.146,0.087-0.144,0.201
		c0.007,0.3,0.015,0.601-0.061,0.895c-0.013,0.05,0.01,0.09,0.052,0.125c0.433,0.357,0.915,0.629,1.435,0.836
		c0.512,0.204,1.026,0.403,1.588,0.572c-0.345,0.034-0.652,0.01-0.955-0.03c-0.726-0.096-1.434-0.268-2.104-0.57
		c-0.14-0.063-0.172,0-0.194,0.102c-0.045,0.212-0.121,0.414-0.208,0.61c-0.044,0.1-0.037,0.156,0.04,0.23
		c0.321,0.306,0.634,0.621,0.977,0.906c0.506,0.421,1.046,0.796,1.602,1.143c0.89,0.555,1.82,1.039,2.785,1.454
		c0.978,0.42,1.969,0.802,3.012,1.037c0.582,0.131,1.094,0.042,1.521-0.4c0.463-0.479,0.727-1.07,0.94-1.684
		c0.333-0.958,0.508-1.95,0.622-2.957c0.076-0.68,0.102-1.361,0.134-2.042c0.03-0.63-0.018-1.261-0.069-1.889
		c-0.023-0.286-0.039-0.573-0.08-0.857c-0.076-0.525-0.157-1.05-0.281-1.567c-0.242-1.008-0.547-1.991-1.162-2.844
		c-0.227-0.315-0.503-0.58-0.902-0.671c-0.274-0.063-0.537,0.012-0.797,0.074c-1.197,0.29-2.333,0.752-3.445,1.271
		c-0.706,0.33-1.396,0.692-2.063,1.097c-1.032,0.626-2.002,1.33-2.839,2.207c-0.07,0.073-0.074,0.123-0.036,0.216
		c0.118,0.293,0.224,0.592,0.283,0.905c0.037,0.199,0.093,0.394,0.107,0.598c0.008,0.109,0.049,0.196,0.195,0.127
		c0.118-0.057,0.243-0.103,0.369-0.139c0.471-0.136,0.945-0.258,1.426-0.355c0.734-0.149,1.476-0.223,2.223-0.261
		C32.545,20.973,33.055,21.057,33.565,21.12z M14.441,21.135c0.001-0.012,0.003-0.024,0.004-0.036
		c0.381-0.034,0.761-0.078,1.143-0.098c0.505-0.027,1.004,0.048,1.506,0.094c0.519,0.048,1.026,0.155,1.533,0.263
		c0.461,0.098,0.914,0.234,1.356,0.398c0.117,0.044,0.172,0.052,0.193-0.112c0.068-0.51,0.187-1.01,0.393-1.484
		c0.042-0.096,0.032-0.158-0.038-0.24c-0.148-0.175-0.317-0.326-0.483-0.483c-0.467-0.445-0.98-0.83-1.51-1.193
		c-0.995-0.68-2.056-1.24-3.149-1.742c-0.999-0.458-2.018-0.86-3.082-1.137c-0.304-0.079-0.614-0.177-0.936-0.106
		c-0.437,0.097-0.702,0.417-0.942,0.757c-0.535,0.758-0.813,1.626-1.039,2.511c-0.157,0.613-0.265,1.236-0.34,1.866
		c-0.063,0.535-0.125,1.07-0.133,1.608c-0.012,0.865-0.031,1.732,0.067,2.595c0.033,0.297,0.041,0.597,0.083,0.893
		c0.073,0.514,0.159,1.025,0.281,1.531c0.213,0.884,0.48,1.746,1.024,2.49c0.224,0.306,0.491,0.572,0.878,0.675
		c0.349,0.093,0.691,0.027,1.029-0.056c1.18-0.288,2.304-0.738,3.4-1.252c1.111-0.52,2.183-1.114,3.177-1.839
		c0.602-0.439,1.183-0.903,1.676-1.467c0.05-0.057,0.064-0.096,0.034-0.171c-0.091-0.228-0.177-0.459-0.247-0.694
		c-0.026-0.088-0.05-0.09-0.119-0.057c-0.533,0.253-1.096,0.417-1.673,0.525c-0.461,0.086-0.927,0.156-1.44,0.116
		c0.351-0.125,0.665-0.235,0.977-0.35c0.683-0.252,1.351-0.532,1.932-0.985c0.091-0.071,0.143-0.144,0.138-0.27
		c-0.01-0.276-0.057-0.551-0.033-0.829c0.008-0.089-0.04-0.127-0.11-0.162c-0.576-0.287-1.173-0.521-1.794-0.688
		c-0.969-0.26-1.947-0.483-2.929-0.69C14.994,21.259,14.718,21.196,14.441,21.135z M19.151,41.009
		c-0.081-0.541-0.157-1.026-0.217-1.514c-0.114-0.931-0.168-1.867-0.197-2.802c-0.031-1-0.022-2,0.026-3
		c0.022-0.456,0.036-0.914,0.082-1.367c0.096-0.938,0.248-1.868,0.501-2.779c0.283-1.017,0.65-2.001,1.177-2.92
		c0.111-0.193,0.227-0.383,0.34-0.574c0.021-0.036,0.054-0.081,0.012-0.113c-0.045-0.034-0.074,0.019-0.102,0.046
		c-0.066,0.062-0.13,0.126-0.192,0.191c-0.531,0.556-1.141,1.017-1.771,1.451c-0.814,0.562-1.674,1.045-2.563,1.476
		c-0.155,0.075-0.262,0.182-0.334,0.334c-0.079,0.169-0.155,0.339-0.241,0.505c-0.24,0.464-0.434,0.948-0.602,1.44
		c-0.523,1.534-0.918,3.1-1.185,4.699c-0.172,1.032-0.288,2.07-0.334,3.113c-0.031,0.697-0.036,1.397,0.031,2.095
		c0.005,0.049-0.031,0.123,0.04,0.14c0.046,0.011,0.079-0.048,0.111-0.083c0.206-0.227,0.407-0.458,0.616-0.682
		c0.423-0.453,0.858-0.896,1.272-1.356c0.173-0.193,0.373-0.363,0.525-0.571c0.084-0.115,0.145-0.113,0.238-0.037
		c0.042,0.034,0.083,0.068,0.125,0.103c0.246,0.206,0.491,0.412,0.737,0.618c0.32,0.267,0.64,0.534,0.96,0.801
		C18.508,40.473,18.81,40.724,19.151,41.009z M27.133,25.966c0.003,0.026,0,0.045,0.007,0.059c0.019,0.038,0.04,0.074,0.063,0.109
		c0.496,0.775,0.875,1.606,1.178,2.472c0.54,1.544,0.784,3.143,0.865,4.77c0.031,0.625,0.035,1.252,0.044,1.878
		c0.013,0.915-0.014,1.829-0.073,2.743c-0.032,0.497-0.076,0.993-0.135,1.488c-0.051,0.436-0.106,0.87-0.187,1.301
		c-0.008,0.043-0.031,0.106,0.018,0.133c0.054,0.03,0.082-0.034,0.117-0.063c0.869-0.722,1.739-1.444,2.605-2.171
		c0.085-0.071,0.133-0.07,0.206,0.013c0.198,0.227,0.403,0.447,0.606,0.668c0.285,0.31,0.571,0.619,0.857,0.928
		c0.336,0.362,0.672,0.722,1.009,1.083c0.024,0.025,0.048,0.063,0.088,0.052c0.046-0.012,0.031-0.059,0.033-0.092
		c0.013-0.18,0.032-0.359,0.035-0.539c0.014-0.812,0.009-1.624-0.06-2.435c-0.051-0.604-0.11-1.208-0.201-1.807
		c-0.174-1.141-0.409-2.269-0.714-3.383c-0.353-1.291-0.77-2.558-1.408-3.742c-0.071-0.131-0.155-0.23-0.294-0.298
		c-0.718-0.349-1.418-0.732-2.091-1.162c-0.888-0.567-1.725-1.199-2.461-1.956C27.216,25.992,27.195,25.956,27.133,25.966z
		 M24.022,26.283c0.561,0,1.122-0.001,1.683,0c0.171,0,0.333-0.028,0.49-0.099c0.455-0.206,0.702-0.592,0.882-1.028
		c0.219-0.533,0.3-1.095,0.345-1.668c0.054-0.687,0.025-1.371-0.057-2.049c-0.069-0.574-0.309-1.104-0.61-1.596
		c-0.224-0.367-0.535-0.654-0.992-0.66c-1.176-0.013-2.352-0.006-3.528-0.003c-0.257,0.001-0.469,0.109-0.659,0.282
		c-0.475,0.431-0.66,1.021-0.854,1.595c-0.121,0.356-0.14,0.737-0.134,1.124c0.007,0.425-0.02,0.85,0.009,1.277
		c0.044,0.661,0.167,1.304,0.461,1.895c0.286,0.575,0.702,0.982,1.427,0.935C22.995,26.256,23.51,26.283,24.022,26.283z"/>
	<path class="st3" d="M33.565,21.12c-0.51-0.063-1.02-0.148-1.538-0.121c-0.747,0.038-1.489,0.112-2.223,0.261
		c-0.481,0.098-0.955,0.22-1.426,0.355c-0.126,0.036-0.251,0.083-0.369,0.139c-0.146,0.07-0.187-0.018-0.195-0.127
		c-0.014-0.204-0.07-0.399-0.107-0.598c-0.059-0.313-0.165-0.612-0.283-0.905c-0.038-0.093-0.034-0.143,0.036-0.216
		c0.837-0.877,1.806-1.581,2.839-2.207c0.667-0.405,1.357-0.767,2.063-1.097c1.112-0.52,2.248-0.981,3.445-1.271
		c0.259-0.063,0.523-0.137,0.797-0.074c0.399,0.091,0.675,0.356,0.902,0.671c0.615,0.854,0.92,1.836,1.162,2.844
		c0.124,0.517,0.205,1.042,0.281,1.567c0.041,0.284,0.057,0.571,0.08,0.857c0.05,0.629,0.099,1.259,0.069,1.889
		c-0.032,0.681-0.058,1.362-0.134,2.042c-0.113,1.007-0.289,1.999-0.622,2.957c-0.213,0.614-0.477,1.205-0.94,1.684
		c-0.428,0.442-0.939,0.531-1.521,0.4c-1.043-0.235-2.034-0.617-3.012-1.037c-0.965-0.414-1.895-0.898-2.785-1.454
		c-0.556-0.347-1.096-0.722-1.602-1.143c-0.343-0.285-0.655-0.599-0.977-0.906c-0.078-0.074-0.084-0.131-0.04-0.23
		c0.086-0.196,0.163-0.398,0.208-0.61c0.022-0.102,0.054-0.165,0.194-0.102c0.669,0.303,1.378,0.474,2.104,0.57
		c0.303,0.04,0.609,0.064,0.955,0.03c-0.562-0.169-1.076-0.368-1.588-0.572c-0.52-0.207-1.002-0.479-1.435-0.836
		c-0.042-0.035-0.065-0.075-0.052-0.125c0.076-0.295,0.068-0.596,0.061-0.895c-0.003-0.114,0.057-0.158,0.144-0.201
		c0.778-0.381,1.597-0.636,2.438-0.838C31.512,21.578,32.537,21.354,33.565,21.12z"/>
	<path class="st3" d="M14.441,21.135c0.277,0.061,0.553,0.125,0.831,0.183c0.982,0.207,1.96,0.43,2.929,0.69
		c0.621,0.167,1.218,0.4,1.794,0.688c0.071,0.035,0.118,0.072,0.11,0.162c-0.024,0.277,0.024,0.552,0.033,0.829
		c0.004,0.126-0.047,0.199-0.138,0.27c-0.581,0.453-1.249,0.734-1.932,0.985c-0.312,0.115-0.627,0.224-0.977,0.35
		c0.513,0.04,0.979-0.03,1.44-0.116c0.577-0.108,1.14-0.272,1.673-0.525c0.069-0.033,0.093-0.031,0.119,0.057
		c0.07,0.235,0.156,0.466,0.247,0.694c0.03,0.075,0.016,0.114-0.034,0.171c-0.494,0.564-1.075,1.027-1.676,1.467
		c-0.993,0.725-2.065,1.319-3.177,1.839c-1.097,0.513-2.22,0.963-3.4,1.252c-0.338,0.083-0.68,0.148-1.029,0.056
		c-0.386-0.102-0.654-0.369-0.878-0.675c-0.545-0.744-0.811-1.607-1.024-2.49c-0.122-0.505-0.208-1.017-0.281-1.531
		c-0.042-0.296-0.05-0.596-0.083-0.893c-0.097-0.863-0.079-1.73-0.067-2.595c0.008-0.537,0.069-1.073,0.133-1.608
		c0.074-0.63,0.183-1.253,0.34-1.866c0.227-0.885,0.505-1.753,1.039-2.511c0.24-0.34,0.504-0.661,0.942-0.757
		c0.322-0.071,0.632,0.026,0.936,0.106c1.064,0.278,2.083,0.679,3.082,1.137c1.094,0.502,2.155,1.062,3.149,1.742
		c0.53,0.363,1.043,0.748,1.51,1.193c0.165,0.157,0.334,0.308,0.483,0.483c0.07,0.083,0.08,0.144,0.038,0.24
		c-0.206,0.474-0.326,0.974-0.393,1.484c-0.022,0.164-0.076,0.156-0.193,0.112c-0.443-0.165-0.895-0.3-1.356-0.398
		c-0.507-0.108-1.014-0.215-1.533-0.263c-0.502-0.046-1.001-0.121-1.506-0.094c-0.382,0.02-0.762,0.064-1.143,0.098
		C14.444,21.111,14.443,21.123,14.441,21.135z"/>
	<path class="st3" d="M19.151,41.009c-0.341-0.284-0.643-0.535-0.944-0.786c-0.32-0.267-0.64-0.534-0.96-0.801
		c-0.246-0.206-0.492-0.412-0.737-0.618c-0.041-0.035-0.083-0.069-0.125-0.103c-0.093-0.076-0.155-0.077-0.238,0.037
		c-0.152,0.208-0.351,0.379-0.525,0.571c-0.415,0.46-0.849,0.903-1.272,1.356c-0.209,0.224-0.41,0.455-0.616,0.682
		c-0.032,0.035-0.065,0.094-0.111,0.083c-0.071-0.017-0.035-0.091-0.04-0.14c-0.067-0.697-0.062-1.397-0.031-2.095
		c0.046-1.044,0.161-2.082,0.334-3.113c0.267-1.599,0.663-3.166,1.185-4.699c0.168-0.492,0.362-0.976,0.602-1.44
		c0.086-0.165,0.162-0.336,0.241-0.505c0.071-0.151,0.178-0.259,0.334-0.334c0.889-0.431,1.749-0.915,2.563-1.476
		c0.63-0.435,1.24-0.895,1.771-1.451c0.062-0.065,0.127-0.129,0.192-0.191c0.028-0.027,0.058-0.08,0.102-0.046
		c0.042,0.032,0.009,0.077-0.012,0.113c-0.113,0.192-0.23,0.381-0.34,0.574c-0.527,0.919-0.894,1.903-1.177,2.92
		c-0.253,0.911-0.405,1.841-0.501,2.779c-0.047,0.454-0.06,0.911-0.082,1.367c-0.049,1-0.057,2-0.026,3
		c0.029,0.936,0.083,1.871,0.197,2.802C18.994,39.983,19.07,40.468,19.151,41.009z"/>
	<path class="st3" d="M27.133,25.966c0.062-0.01,0.083,0.025,0.106,0.05c0.737,0.757,1.574,1.389,2.461,1.956
		c0.673,0.43,1.373,0.813,2.091,1.162c0.139,0.067,0.224,0.167,0.294,0.298c0.638,1.184,1.054,2.451,1.408,3.742
		c0.305,1.114,0.54,2.242,0.714,3.383c0.091,0.599,0.15,1.202,0.201,1.807c0.069,0.811,0.074,1.623,0.06,2.435
		c-0.003,0.18-0.022,0.36-0.035,0.539c-0.002,0.033,0.013,0.08-0.033,0.092c-0.04,0.011-0.064-0.027-0.088-0.052
		c-0.337-0.36-0.674-0.721-1.009-1.083c-0.287-0.309-0.572-0.618-0.857-0.928c-0.204-0.221-0.409-0.441-0.606-0.668
		c-0.073-0.083-0.121-0.084-0.206-0.013c-0.866,0.726-1.736,1.448-2.605,2.171c-0.034,0.029-0.062,0.092-0.117,0.063
		c-0.05-0.027-0.026-0.09-0.018-0.133c0.081-0.431,0.136-0.865,0.187-1.301c0.058-0.495,0.102-0.991,0.135-1.488
		c0.059-0.913,0.086-1.827,0.073-2.743c-0.009-0.626-0.013-1.253-0.044-1.878c-0.081-1.627-0.326-3.226-0.865-4.77
		c-0.303-0.866-0.681-1.698-1.178-2.472c-0.023-0.035-0.044-0.072-0.063-0.109C27.133,26.011,27.136,25.992,27.133,25.966z"/>
	<path class="st3" d="M24.022,26.283c-0.513,0-1.027-0.027-1.537,0.006c-0.725,0.047-1.141-0.359-1.427-0.935
		c-0.294-0.591-0.418-1.235-0.461-1.895c-0.028-0.427-0.002-0.852-0.009-1.277c-0.006-0.387,0.013-0.768,0.134-1.124
		c0.194-0.575,0.379-1.164,0.854-1.595c0.19-0.173,0.402-0.282,0.659-0.282c1.176-0.002,2.352-0.01,3.528,0.003
		c0.457,0.005,0.768,0.293,0.992,0.66c0.301,0.492,0.54,1.022,0.61,1.596c0.082,0.678,0.11,1.362,0.057,2.049
		c-0.045,0.574-0.126,1.135-0.345,1.668c-0.18,0.437-0.427,0.822-0.882,1.028c-0.158,0.072-0.32,0.099-0.49,0.099
		C25.144,26.282,24.583,26.283,24.022,26.283z"/>
</g>
</svg>
