<?xml version="1.0" encoding="utf-8"?>
<!-- Generator: Adobe Illustrator 28.0.0, SVG Export Plug-In . SVG Version: 6.00 Build 0)  -->
<svg version="1.1" id="Layer_1" xmlns="http://www.w3.org/2000/svg" xmlns:xlink="http://www.w3.org/1999/xlink" x="0px" y="0px"
	 viewBox="0 0 48 48" style="enable-background:new 0 0 48 48;" xml:space="preserve">
<style type="text/css">
	.st0{fill:#945A4E;stroke:#000000;stroke-width:0.561;stroke-miterlimit:10;}
	.st1{fill:#CC314D;}
	.st2{fill:#A1233B;}
</style>
<g>
	<path class="st0" d="M15.158,25.889l-3.547-1.822l-0.002-9.815l1.091,0.622c0.088,0.05,0.183,0.073,0.277,0.073
		c0.195,0,0.385-0.102,0.488-0.283c0.153-0.269,0.06-0.611-0.21-0.765l-1.647-0.939l0-0.613l1.392-9.366
		c0.045-0.306-0.166-0.592-0.473-0.637c-0.307-0.042-0.591,0.167-0.637,0.473l-1.398,9.448v31.647c0,0.31,0.251,0.561,0.561,0.561
		s0.561-0.251,0.561-0.561l-0.001-6.902l1.017,0.622c0.091,0.056,0.192,0.082,0.292,0.082c0.189,0,0.374-0.095,0.479-0.268
		c0.162-0.264,0.078-0.609-0.186-0.771l-1.602-0.98l-0.002-10.365l3.034,1.558c0.082,0.042,0.17,0.062,0.256,0.062
		c0.204,0,0.4-0.111,0.5-0.305C15.542,26.369,15.434,26.03,15.158,25.889z"/>
	<path class="st0" d="M32.842,25.889l3.547-1.822l0.002-9.815l-1.091,0.622c-0.088,0.05-0.183,0.073-0.277,0.073
		c-0.195,0-0.385-0.102-0.488-0.283c-0.153-0.269-0.06-0.611,0.21-0.765l1.647-0.939l0-0.613l-1.392-9.366
		c-0.045-0.306,0.166-0.592,0.473-0.637c0.307-0.042,0.591,0.167,0.637,0.473l1.398,9.448v31.647c0,0.31-0.251,0.561-0.561,0.561
		s-0.561-0.251-0.561-0.561l0.001-6.902l-1.017,0.622c-0.091,0.056-0.192,0.082-0.292,0.082c-0.189,0-0.374-0.095-0.479-0.268
		c-0.162-0.264-0.078-0.609,0.186-0.771l1.602-0.98l0.002-10.365l-3.034,1.558c-0.082,0.042-0.17,0.062-0.256,0.062
		c-0.204,0-0.4-0.111-0.5-0.305C32.458,26.369,32.566,26.03,32.842,25.889z"/>
	<g>
		<path class="st1" d="M15.005,16.822c-1.181-0.212-1.799-0.865-1.665-1.709l0.735-4.394c-0.003-1.582,0.785-3.43,2.246-3.647
			l7.523-1.23l7.619,1.231c1.457,0.217,2.245,2.064,2.245,3.693l0.731,4.345c0.135,0.847-0.484,1.5-1.614,1.708l-0.025,0.004H15.005
			z"/>
		<path d="M23.889,6.118l7.528,1.231c1.357,0.201,2.01,2.045,2.01,3.416l0.735,4.392c0.132,0.833-0.644,1.248-1.388,1.385h-8.884
			h-8.884c-0.745-0.137-1.521-0.553-1.388-1.385l0.735-4.392c0-1.371,0.653-3.214,2.01-3.416L23.889,6.118 M23.889,5.549
			l-0.091,0.015l-7.528,1.231c-1.594,0.237-2.465,2.188-2.48,3.922l-0.728,4.347c-0.159,1,0.564,1.795,1.84,2.03l0.05,0.009h0.051
			h8.884h8.884h0.051l0.05-0.009c1.276-0.235,1.999-1.03,1.841-2.025l-0.728-4.352c-0.016-1.734-0.887-3.685-2.489-3.923
			l-7.519-1.23L23.889,5.549L23.889,5.549z"/>
	</g>
	<g>
		<path class="st2" d="M30.715,45.38c-0.589,0-1.271-0.012-2.062-0.025c-1.097-0.02-2.404-0.042-3.963-0.042h-1.601
			c-1.559,0-2.865,0.022-3.962,0.042c-0.791,0.014-1.473,0.025-2.062,0.025c-2.061,0-2.815-0.161-3.228-0.689
			c-1.908-2.441-0.981-6.229,0.091-10.612c0.423-1.73,0.861-3.521,1.187-5.421c0.094-0.547,0.077-3.985,0.045-8.423
			c-0.009-1.299-0.018-2.507-0.02-3.413h17.499c-0.002,0.904-0.011,2.109-0.021,3.406c-0.031,4.442-0.049,7.883,0.046,8.43
			c0.325,1.9,0.764,3.689,1.187,5.421c1.073,4.384,2,8.171,0.092,10.612C33.529,45.219,32.775,45.38,30.715,45.38
			C30.715,45.38,30.715,45.38,30.715,45.38z"/>
		<g>
			<path d="M32.358,17.103c-0.003,0.867-0.011,1.963-0.019,3.132c-0.033,4.6-0.049,7.899,0.049,8.47
				c0.327,1.91,0.766,3.705,1.191,5.44c1.099,4.491,1.967,8.039,0.143,10.374c-0.344,0.44-1.075,0.581-3.008,0.581
				c-0.587,0-1.267-0.012-2.055-0.026c-1.069-0.019-2.4-0.042-3.958-0.042l-0.808,0.002l-0.814-0.002
				c-1.558,0-2.889,0.023-3.958,0.042c-0.788,0.014-1.468,0.026-2.055,0.026c-1.933,0-2.664-0.141-3.008-0.581
				c-1.824-2.335-0.956-5.882,0.143-10.374c0.425-1.735,0.864-3.53,1.191-5.44c0.098-0.57,0.082-3.87,0.049-8.47
				c-0.008-1.169-0.016-2.265-0.019-3.132h8.468H32.358 M32.92,16.542h-9.03h-9.03c0,3.224,0.115,11.274-0.021,12.068
				c-1.187,6.924-3.963,12.747-1.223,16.254c0.516,0.661,1.452,0.797,3.45,0.797c1.405,0,3.335-0.067,6.013-0.067
				c0.263,0,0.533,0.001,0.811,0.002c0.278-0.001,0.548-0.002,0.811-0.002c2.678,0,4.608,0.067,6.013,0.067
				c1.999,0,2.934-0.136,3.45-0.797c2.74-3.507-0.037-9.33-1.223-16.254C32.804,27.816,32.92,19.765,32.92,16.542L32.92,16.542z"/>
		</g>
	</g>
</g>
</svg>
